<?xml version="1.0" encoding="UTF-8" standalone="no"?>
<svg
   width="169"
   height="79.177"
   viewBox="-9.05 -0.807 169 79.177"
   version="1.1"
   id="svg12"
   xmlns="http://www.w3.org/2000/svg"
   xmlns:svg="http://www.w3.org/2000/svg">
  <defs
     id="defs16" />
  <rect
     style="fill:#000000;stroke-width:6.20583"
     id="rect398"
     width="162.6526"
     height="9.1244135"
     x="-3.1984744"
     y="69.411308" />
  <g
     fill="#ffffff"
     id="g10"
     transform="translate(0.0991784,0.0991784)">
    <path
       d="m 148.228,-0.807 h -7.466 l -19.937,49.86 3.726,9.331 z m -70.795,0 V 78.37 h 6.921 V 16.516 l 24.742,61.854 h 7.465 L 84.893,-0.807 Z"
       id="path2" />
    <path
       d="m 88.316,78.37 h 6.928 V 54.395 L 88.316,37.068 Z m 53.822,0 h 6.925 V 37.068 l -6.925,17.327 z M 34.342,-0.807 54.132,48.679 H 22.009 L 30.079,28.507 26.348,19.178 2.676,78.37 h 7.463 l 9.1,-22.761 h 37.665 l 9.107,22.761 h 7.457 L 41.805,-0.807 Z"
       id="path4" />
    <path
       d="M 54.225,59.564 H 21.921 l -2.77,6.93 h 30.384 l 4.75,11.876 h 7.463 L 54.225,59.569 Z"
       id="path6" />
    <path
       d="m 40.826,44.721 h 7.462 L 30.079,-0.807 h -7.464 l -29.059,72.66 -2.576,6.44 -0.03,0.077 h 7.463 L 26.348,8.521 Z M 159.95,-0.807 h -7.461 L 124.551,69.042 96.614,-0.807 h -7.462 l 31.669,79.177 h 7.461 L 153.02,16.516 V 78.37 h 6.93 v -0.002 z"
       id="path8" />
  </g>
</svg>
