<svg width="1000" height="1000" xmlns="http://www.w3.org/2000/svg">
    <path style="fill:#000;fill-opacity:1;stroke:none;stroke-width:4.49899" d="M-3.895-.975v1007.791h1014.606V-.974H-3.895zm515.87 301.036 18.6.273 18.6.271 77.405 193.5c42.573 106.425 77.658 194.288 77.967 195.25.52 1.624-.77 1.75-17.883 1.75H668.22l-25.03-62.25a150044.628 150044.628 0 0 1-60.87-151.75l-35.844-89.5-.254 151.75-.254 151.75h-33.992V300.061zm-273.784.002 18.641.271 18.643.271 44.738 112c24.607 61.6 44.744 112.338 44.75 112.75.006.413-8.271.75-18.393.75h-18.402l-15.156-38.25c-8.336-21.037-24.208-61.087-35.272-89-11.063-27.912-20.375-50.74-20.691-50.726-.317.013-31.451 77.076-69.188 171.25L119.25 690.605l-18.754.272c-14.86.216-18.65.008-18.252-1 .276-.7 35.477-88.694 78.225-195.543l77.722-194.272zm76.682.042h17.9l77.713 194.25a1862364.98 1862364.98 0 0 1 78.217 195.522c.398 1.008-3.386 1.216-18.228 1l-18.73-.272-22.155-55.5-22.154-55.5H221.774l-22.2 55.5-22.201 55.5-18.693.272-18.694.271 2.07-5.271c13.09-33.312 114.238-284.467 114.792-285.031 1.03-1.05 18.469 43.863 17.869 46.02-.267.957-9.113 23.28-19.66 49.609-10.547 26.328-19.002 48.045-18.79 48.257.213.213 35.677.27 78.811.13l78.426-.257-48.219-121c-26.52-66.55-48.238-121.562-48.264-122.25-.035-.955 4.174-1.25 17.852-1.25zm273.086 0h18.125l2.293 5.25c1.261 2.888 32.383 80.279 69.162 171.98 36.779 91.703 67.162 166.403 67.518 166 .471-.533 132.053-329.78 136.47-341.48.597-1.579 2.454-1.75 19.053-1.75h18.395v391H884.98l-.253-151.382-.252-151.381-60.582 151.13-60.582 151.133-18.918.252-18.918.25-77.5-193.75c-42.625-106.563-77.645-194.539-77.82-195.502-.295-1.614 1.087-1.75 17.804-1.75zm255.455.227c16.84-.244 18.727-.106 18.18 1.32-3.185 8.3-115.973 289.238-116.465 290.096-.36.628-4.89-9.2-10.067-21.842l-9.412-22.984 30.4-75.658 49.487-123.159 19.088-47.5 18.79-.273zm21.606 188.797c.527-.9.905 40.081.923 100.226l.032 101.75h-34V572.228l16.076-40.787c8.842-22.433 16.478-41.474 16.969-42.312zm-298.68.06c.2.23 7.85 19.394 17 42.59l16.635 42.176v117.15h-34V589.94c0-55.641.164-100.979.365-100.75zM394.584 597.105l18.596 46.5 18.595 46.5h-37.363l-11.598-28.75-11.597-28.75-75.203-.255c-41.362-.141-75.054-.64-74.871-1.11.182-.469 3.257-8.33 6.832-17.469l6.5-16.615 80.054-.025 80.055-.026z"/>
</svg>
